<?xml version="1.0"?>
<svg xmlns="http://www.w3.org/2000/svg" viewBox="0 0 64 64" width="512" height="512"><g id="karoke"><path d="M49.947,15.489l.366,1.583.635-1.5a1,1,0,0,1,1.008-.605l1.617.141-1.225-1.065a1,1,0,0,1-.265-1.146l.634-1.5-1.392.838a1,1,0,0,1-1.171-.1l-1.227-1.066.366,1.582a1,1,0,0,1-.459,1.083l-1.393.837,1.619.142A1,1,0,0,1,49.947,15.489Z"/><path d="M50.64,24.97a11.017,11.017,0,1,0-8.4-3.21A11,11,0,0,0,50.64,24.97ZM43.773,14.448,47.181,12.4l-.895-3.873a1,1,0,0,1,1.63-.98l3,2.607,3.407-2.049A1,1,0,0,1,55.76,9.354l-1.552,3.66,3,2.607a1,1,0,0,1-.742,1.751l-3.961-.346-1.552,3.661a1,1,0,0,1-.92.609.877.877,0,0,1-.088,0,1,1,0,0,1-.887-.771l-.9-3.874L44.2,16.3a1,1,0,0,1-.429-1.854Z"/><path d="M12.121,38.121a3,3,0,0,0,0-4.242h0L5.757,27.515l2.829-2.828a1,1,0,0,0-1.414-1.415L3.636,26.808a1,1,0,0,0,0,1.414l5.089,5.089a2.815,2.815,0,0,0-.846.568,3,3,0,1,0,4.242,4.242ZM9.293,35.293a1,1,0,0,1,1.414,0h0a1,1,0,0,1,0,1.414,1.021,1.021,0,0,1-1.414,0A1,1,0,0,1,9.293,35.293Z"/><path d="M60.121,55.879l-6.364-6.364,2.829-2.828a1,1,0,0,0-1.414-1.415l-3.536,3.536a1,1,0,0,0,0,1.414l5.089,5.089a2.815,2.815,0,0,0-.846.568,3,3,0,1,0,4.243,0Zm-1.414,2.828a1.021,1.021,0,0,1-1.414,0,1,1,0,1,1,1.414-1.414h0A1,1,0,0,1,58.707,58.707Z"/><path d="M38,45H33a1,1,0,0,0-1,1v7.184A2.966,2.966,0,0,0,31,53a3,3,0,1,0,3,3V47h4a1,1,0,0,0,0-2ZM31,57a1,1,0,1,1,1-1A1,1,0,0,1,31,57Z"/><path d="M24,21a3,3,0,0,0,3-3V9h4a1,1,0,0,0,0-2H26a1,1,0,0,0-1,1v7.184A2.966,2.966,0,0,0,24,15a3,3,0,0,0,0,6Zm0-4a1,1,0,1,1-1,1A1,1,0,0,1,24,17Z"/><path d="M56,35.184A2.966,2.966,0,0,0,55,35a3,3,0,1,0,3,3V30a1,1,0,0,0-1-1H49a1,1,0,0,0-1,1v7.184A2.966,2.966,0,0,0,47,37a3,3,0,1,0,3,3V31h6ZM55,39a1,1,0,1,1,1-1A1,1,0,0,1,55,39Zm-8,2a1,1,0,1,1,1-1A1,1,0,0,1,47,41Z"/><path d="M7,20a3,3,0,0,0,3-3V8h6v4.184A2.966,2.966,0,0,0,15,12a3,3,0,1,0,3,3V7a1,1,0,0,0-1-1H9A1,1,0,0,0,8,7v7.184A2.966,2.966,0,0,0,7,14a3,3,0,0,0,0,6Zm8-4a1,1,0,1,1,1-1A1,1,0,0,1,15,16ZM7,16a1,1,0,1,1-1,1A1,1,0,0,1,7,16Z"/><path d="M18.05,42.7a2.309,2.309,0,0,0,3.25,3.25l.72-.58-3.39-3.39Z"/><path d="M40.83,23.17a12.8,12.8,0,0,1-2.99-4.67L19.9,40.43l3.67,3.67L45.51,26.16A13.052,13.052,0,0,1,40.83,23.17Z"/><path d="M15.79,53.79l-2.5,2.5a1.111,1.111,0,0,1-1.58,0l-.5-.5a1.111,1.111,0,0,1,0-1.58l6.37-6.37a4.229,4.229,0,0,1-.79-.62,3.638,3.638,0,0,1-.62-.81L9.79,52.79a3.145,3.145,0,0,0,0,4.42l.5.5a3.145,3.145,0,0,0,4.42,0l2.5-2.5a1.117,1.117,0,1,1,1.58,1.58l-4.5,4.5a1.008,1.008,0,0,0,0,1.42,1.014,1.014,0,0,0,1.42,0l4.5-4.5a3.139,3.139,0,0,0,0-4.42A3.145,3.145,0,0,0,15.79,53.79Z"/></g></svg>
